<?xml version="1.0" encoding="utf-8"?>
<svg viewBox="0 0 500 500" xmlns="http://www.w3.org/2000/svg">
  <defs/>
  <path d="M 422.824 418.701 L 104.319 418.701 C 86.226 418.701 71.529 402.443 71.529 382.43 L 71.529 125.704 C 71.529 105.691 86.226 89.434 104.319 89.434 L 422.777 89.434 C 440.87 89.434 455.567 105.691 455.567 125.704 L 455.567 382.43 C 455.613 402.443 440.916 418.701 422.824 418.701 Z" fill="#FFFFFF" style=""/>
  <path d="M 437.009 125.447 C 437.009 116.958 430.73 110.013 423.056 110.013 L 104.086 110.013 C 96.413 110.013 90.133 116.958 90.133 125.447 L 90.133 187.236 L 436.963 187.236 L 436.963 125.447 L 437.009 125.447 Z M 134.83 174.889 C 121.714 174.889 111.017 163.055 111.017 148.547 C 111.017 134.039 121.714 122.206 134.83 122.206 C 147.946 122.206 158.644 134.039 158.644 148.547 C 158.644 163.055 147.993 174.889 134.83 174.889 Z M 265.897 171.39 L 199.573 171.39 C 188.364 171.39 179.248 161.306 179.248 148.908 C 179.248 136.508 188.364 126.425 199.573 126.425 L 265.897 126.425 C 277.106 126.425 286.222 136.508 286.222 148.908 C 286.222 161.306 277.106 171.39 265.897 171.39 Z" fill="#E6E6E6" style=""/>
  <path d="M 124.505 379.961 L 263.478 379.961 C 266.036 379.961 268.129 377.646 268.129 374.816 C 268.129 371.986 266.036 369.671 263.478 369.671 L 124.505 369.671 C 120.551 369.671 117.342 366.121 117.342 361.748 L 117.342 262.556 C 117.342 259.726 115.249 257.411 112.691 257.411 C 110.133 257.411 108.04 259.726 108.04 262.556 L 108.04 361.8 C 108.086 371.78 115.435 379.961 124.505 379.961 Z" style="fill: rgb(42, 156, 213);"/>
  <path d="M 134.83 132.495 C 126.831 132.495 120.319 139.698 120.319 148.547 C 120.319 157.396 126.831 164.599 134.83 164.599 C 142.83 164.599 149.342 157.396 149.342 148.547 C 149.342 139.698 142.83 132.495 134.83 132.495 Z" fill="#FFFFFF" style=""/>
  <path d="M 134.83 122.206 C 121.714 122.206 111.017 134.039 111.017 148.547 C 111.017 163.055 121.714 174.889 134.83 174.889 C 147.946 174.889 158.644 163.055 158.644 148.547 C 158.644 134.039 147.993 122.206 134.83 122.206 Z M 134.83 164.599 C 126.831 164.599 120.319 157.396 120.319 148.547 C 120.319 139.698 126.831 132.495 134.83 132.495 C 142.83 132.495 149.342 139.698 149.342 148.547 C 149.342 157.396 142.83 164.599 134.83 164.599 Z" style="fill: rgb(65, 81, 111);"/>
  <path d="M 265.897 136.766 L 199.573 136.766 C 193.526 136.766 188.55 142.219 188.55 148.959 C 188.55 155.699 193.48 161.152 199.573 161.152 L 265.897 161.152 C 271.943 161.152 276.92 155.699 276.92 148.959 C 276.92 142.219 271.943 136.766 265.897 136.766 Z" fill="#FFFFFF" style=""/>
  <path d="M 265.897 126.476 L 199.573 126.476 C 188.364 126.476 179.248 136.56 179.248 148.959 C 179.248 161.358 188.364 171.441 199.573 171.441 L 265.897 171.441 C 277.106 171.441 286.222 161.358 286.222 148.959 C 286.222 136.56 277.106 126.476 265.897 126.476 Z M 265.897 161.1 L 199.573 161.1 C 193.526 161.1 188.55 155.647 188.55 148.908 C 188.55 142.168 193.48 136.714 199.573 136.714 L 265.897 136.714 C 271.943 136.714 276.92 142.168 276.92 148.908 C 276.92 155.647 271.943 161.1 265.897 161.1 Z" style="fill: rgb(65, 81, 111);"/>
  <path d="M 423.056 89.434 L 104.086 89.434 C 86.134 89.434 71.529 105.588 71.529 125.447 L 71.529 382.687 C 71.529 402.546 86.134 418.701 104.086 418.701 L 423.009 418.701 C 440.963 418.701 455.567 402.546 455.567 382.687 L 455.567 125.447 C 455.613 105.588 441.009 89.434 423.056 89.434 Z M 437.009 382.687 C 437.009 391.176 430.73 398.122 423.056 398.122 L 104.086 398.122 C 96.413 398.122 90.133 391.176 90.133 382.687 L 90.133 197.525 L 436.963 197.525 L 436.963 382.687 L 437.009 382.687 Z M 437.009 187.236 L 90.18 187.236 L 90.18 125.447 C 90.18 116.958 96.459 110.013 104.133 110.013 L 423.056 110.013 C 430.73 110.013 437.009 116.958 437.009 125.447 L 437.009 187.236 Z" style="fill: rgb(206, 147, 216);"/>
  <path d="M 239.2 314.004 L 186.038 290.698 L 239.2 268.216 L 239.2 244.292 L 163.016 280.769 L 163.016 301.091 L 239.2 337.721 L 239.2 314.004 Z M 289.804 226.645 L 273.803 226.645 L 246.269 353.825 L 261.99 353.825 L 289.804 226.645 Z M 373.15 280.923 L 296.873 244.447 L 296.873 268.01 L 350.081 290.904 L 296.873 314.056 L 296.873 337.825 L 373.15 301.091 L 373.15 280.923 Z" style="fill: rgb(65, 81, 111);"/>
</svg>